<svg preserveAspectRatio="none" width="100%" height="100%" overflow="visible" style="display: block;" viewBox="0 0 269 51" fill="none" xmlns="http://www.w3.org/2000/svg">
<g id="Group">
<path id="Vector" d="M17.7032 33.152C10.9458 33.152 8.93538 26.768 8.93538 20.832C8.93538 14.896 11.3368 8.68 17.5357 8.68C23.7346 8.68 24.1255 11.48 24.7957 14.056H33.4518C32.6141 7.84 27.8672 1.904 17.7591 1.904C7.65092 1.904 -2.02472e-06 10.976 -2.02472e-06 21.112C-2.02472e-06 31.248 5.52877 39.872 17.3123 39.872C29.0958 39.872 31.9998 34.72 33.5077 27.72H24.7398C24.2372 29.512 22.7852 33.096 17.6474 33.096L17.7032 33.152Z" fill="var(--fill-0, white)"/>
<path id="Vector_2" d="M60.8723 20.608C60.8723 13.888 56.7397 10.92 49.1446 10.92C41.5495 10.92 37.3611 14.784 36.9143 19.992H44.8445C45.1795 18.032 45.8497 16.856 48.8095 16.856C51.7694 16.856 52.6629 18.592 52.6629 20.44V22.008H48.8654C40.7118 22.008 35.574 24.976 35.574 31.36C35.574 37.744 38.3663 40.152 45.1237 40.152C51.8811 40.152 51.7135 38.472 52.7746 37.016C52.7746 37.52 52.9422 38.976 53.1655 39.48H61.1515C60.984 38.808 60.7606 34.664 60.7606 32.032V20.608H60.8723ZM52.7188 27.608C52.7188 31.024 52.2162 34.16 47.6926 34.16C43.1691 34.16 44.0068 32.592 44.0068 30.688C44.0068 28.784 45.5146 26.88 49.8706 26.88H52.6629V27.552H52.7188V27.608Z" fill="var(--fill-0, white)"/>
<path id="Vector_3" d="M73.2143 16.184C73.2143 14.952 73.1585 12.04 72.9909 11.48H64.8374V39.368H73.1585V27.552C73.1585 19.768 76.4534 18.592 81.9821 18.76V10.808C77.1794 10.808 74.3312 13.104 73.1585 16.184H73.2143Z" fill="var(--fill-0, white)"/>
<path id="Vector_4" d="M102.366 14.224C101.975 13.048 100.076 10.808 95.4411 10.808C88.4045 10.808 83.2108 16.856 83.2108 25.536C83.2108 34.216 87.2317 39.032 94.7709 39.032C102.31 39.032 100.97 37.52 102.422 35.336V36.512C102.422 41.832 101.584 44.632 96.8931 44.632C92.202 44.632 92.8722 43.4 92.3695 41.72H83.8809C84.1043 44.688 85.9472 50.68 96.5021 50.68C107.057 50.68 110.631 44.912 110.631 35.952V11.648H102.701C102.701 12.04 102.478 13.72 102.366 14.392V14.224ZM97.1723 32.312C94.0449 32.312 91.7552 29.736 91.7552 25.2C91.7552 20.664 94.38 17.528 97.284 17.528C101.919 17.528 102.589 20.664 102.589 24.976C102.589 29.288 101.417 32.312 97.1723 32.312Z" fill="var(--fill-0, white)"/>
<path id="Vector_5" d="M126.603 10.808C117.668 10.808 112.307 16.856 112.307 25.536C112.307 34.216 117.444 40.04 126.156 40.04C134.868 40.04 140.174 33.936 140.174 25.424C140.174 16.912 134.813 10.864 126.547 10.864L126.603 10.808ZM126.38 33.544C122.917 33.544 120.851 30.632 120.851 25.424C120.851 20.216 123.085 17.304 126.268 17.304C129.451 17.304 131.797 19.712 131.797 25.48C131.797 31.248 129.898 33.488 126.38 33.488V33.544Z" fill="var(--fill-0, white)"/>
<path id="Vector_6" d="M157.486 17.584C150.952 16.016 148.83 14.616 148.83 11.144C148.83 7.672 151.399 5.544 155.922 5.544C160.446 5.544 163.406 8.288 164.076 11.592H169.102C168.6 6.72 164.97 1.568 156.09 1.568C147.21 1.568 143.692 6.104 143.692 11.648C143.692 17.192 146.764 19.936 155.476 22.064C162.903 23.856 164.802 25.928 164.802 29.736C164.802 33.544 162.512 36.008 156.704 36.008C150.896 36.008 148.272 33.6 147.21 29.12H142.184C142.91 34.832 146.987 39.984 156.369 39.984C165.751 39.984 169.884 35.28 169.884 29.232C169.884 23.184 167.985 20.272 157.43 17.752V17.584H157.486Z" fill="var(--fill-0, white)"/>
<path id="Vector_7" d="M186.917 11.592C182.282 11.592 179.49 13.72 177.982 16.576C177.982 14.84 177.982 13.16 177.814 12.264H173.291V50.176H177.982V36.12C179.21 38.248 181.556 40.096 185.912 40.096C192.502 40.096 197.695 34.888 197.695 25.144C197.695 15.4 193.172 11.592 186.861 11.592H186.917ZM185.353 36.064C179.657 36.064 177.87 32.2 177.87 25.704C177.87 19.208 180.104 15.512 185.688 15.512C191.273 15.512 192.948 19.488 192.948 25.2C192.948 30.912 190.324 36.064 185.353 36.064Z" fill="var(--fill-0, white)"/>
<path id="Vector_8" d="M206.296 17.752C206.296 15.12 206.296 12.936 206.128 12.208H201.493V39.424H206.184V26.208C206.184 19.32 209.758 16.464 215.343 16.296V11.592C210.875 11.76 207.58 14.056 206.184 17.808H206.24L206.296 17.752Z" fill="var(--fill-0, white)"/>
<path id="Vector_9" d="M223.72 -1.90735e-08H219.029V5.88H223.72V-1.90735e-08Z" fill="var(--fill-0, white)"/>
<path id="Vector_10" d="M223.72 12.152H219.029V39.368H223.72V12.152Z" fill="var(--fill-0, white)"/>
<path id="Vector_11" d="M242.596 11.592C237.29 11.592 235.168 14.392 233.995 16.744C233.995 15.904 233.995 13.104 233.828 12.264H229.304V39.48H233.995V25.088C233.995 19.656 236.062 15.736 241.2 15.736C246.337 15.736 246.952 18.48 246.952 22.624V39.48H251.643V21.952C251.643 14.728 247.678 11.592 242.596 11.592Z" fill="var(--fill-0, white)"/>
<path id="Vector_12" d="M268.676 16.016V12.208H262.644V4.2H257.953V12.208H253.262V16.016H257.953V33.04C257.953 37.576 259.852 39.76 264.041 39.76C268.229 39.76 266.945 39.76 268.062 39.256V35.672C267.336 35.84 266.33 35.896 265.66 35.896C263.203 35.896 262.533 34.552 262.533 31.92V15.96H268.62L268.676 16.016Z" fill="var(--fill-0, white)"/>
</g>
</svg>
