<svg preserveAspectRatio="none" width="100%" height="100%" overflow="visible" style="display: block;" viewBox="0 0 50 51" fill="none" xmlns="http://www.w3.org/2000/svg">
<g id="Group">
<path id="Vector" d="M32.3349 1.904C32.3349 0.840001 31.4972 0 30.4362 0H17.4798C16.6422 0 15.8045 0.335999 15.246 0.895999L1.78708 14.56C0.614308 15.736 0 17.36 0 19.04V30.968C0 32.032 0.837692 32.872 1.89877 32.872H16.1954V16.408H32.3908V1.848L32.3349 1.904Z" fill="var(--fill-0, #02C38D)"/>
<path id="Vector_2" d="M47.7485 17.472H33.4518V33.936H17.2565V48.496C17.2565 49.56 18.0942 50.4 19.1552 50.4H32.1115C32.9492 50.4 33.7869 50.064 34.3454 49.504L47.8043 35.84C48.9771 34.664 49.5914 33.04 49.5914 31.36V19.432C49.5914 18.368 48.7537 17.528 47.6926 17.528L47.7485 17.472Z" fill="var(--fill-0, #02C38D)"/>
</g>
</svg>
